<?xml version="1.0" standalone="no"?>
<!DOCTYPE svg PUBLIC "-//W3C//DTD SVG 20010904//EN"
 "http://www.w3.org/TR/2001/REC-SVG-20010904/DTD/svg10.dtd">
<svg version="1.0" xmlns="http://www.w3.org/2000/svg"
 width="552.000000pt" height="552.000000pt" viewBox="0 0 552.000000 552.000000"
 preserveAspectRatio="xMidYMid meet">
<metadata>
Created by potrace 1.14, written by Peter Selinger 2001-2017
</metadata>
<g transform="translate(0.000000,552.000000) scale(0.100000,-0.100000)"
fill="#000000" stroke="none">
<path d="M2635 5305 c-80 -26 -115 -46 -168 -97 -162 -160 -159 -415 8 -565
47 -43 138 -93 170 -93 8 0 12 -6 10 -12 -2 -7 -7 -25 -10 -40 -3 -16 -7 -40
-10 -55 -3 -16 -8 -37 -10 -48 -2 -11 -11 -54 -20 -95 -9 -41 -19 -88 -21
-105 -3 -16 -9 -46 -14 -65 -5 -19 -11 -48 -14 -65 -3 -16 -17 -86 -32 -155
-14 -69 -28 -134 -30 -145 -35 -177 -45 -224 -50 -245 -12 -54 -52 -249 -59
-290 -3 -14 -18 -86 -34 -161 -16 -75 -32 -151 -36 -170 -3 -19 -8 -41 -10
-49 -2 -8 -4 -21 -4 -27 -2 -23 -19 -13 -26 15 -7 27 -34 101 -115 307 -5 11
-18 47 -30 80 -12 33 -29 75 -37 93 -8 18 -22 56 -32 85 -33 93 -213 561 -227
589 -8 15 -14 30 -14 33 1 3 -9 31 -20 63 -12 31 -35 91 -50 132 -16 41 -40
103 -53 138 l-26 62 32 16 c92 47 171 143 201 243 16 55 16 197 0 223 -5 7 -9
18 -10 24 -3 22 -53 99 -84 131 -40 41 -119 93 -140 93 -9 0 -20 3 -24 7 -16
17 -128 24 -190 12 -28 -5 -74 -21 -102 -34 -56 -27 -154 -117 -154 -141 0 -7
-4 -14 -9 -14 -16 0 -51 -131 -52 -193 -1 -105 45 -211 124 -284 55 -51 129
-89 187 -98 25 -4 48 -9 51 -11 7 -4 6 -163 -5 -629 -10 -390 -18 -781 -19
-917 -1 -71 -6 -127 -10 -125 -5 1 -16 16 -25 32 -9 16 -25 38 -34 49 -10 11
-18 26 -18 33 0 7 -4 13 -10 13 -5 0 -10 6 -10 13 0 6 -9 23 -20 37 -32 39
-200 300 -200 310 0 4 -3 10 -8 12 -4 1 -66 93 -137 203 -71 110 -133 202
-137 203 -5 2 -8 8 -8 14 0 6 -16 33 -35 59 -19 27 -35 54 -35 59 0 6 -4 10
-10 10 -5 0 -10 4 -10 10 0 5 -25 45 -55 89 -30 44 -55 84 -55 90 0 6 -3 11
-7 11 -5 0 -16 14 -25 30 l-17 30 52 52 c81 82 120 180 118 293 0 49 -36 169
-56 189 -8 8 -15 18 -15 23 0 10 -78 84 -110 104 -63 40 -137 58 -222 55 -113
-4 -188 -37 -268 -116 -108 -107 -139 -291 -73 -431 62 -133 189 -220 331
-227 44 -3 72 -9 73 -16 1 -19 7 -48 23 -126 21 -102 25 -120 31 -155 3 -16
12 -61 20 -100 9 -38 27 -128 41 -200 14 -71 27 -139 30 -150 9 -44 14 -71 18
-95 3 -14 12 -61 21 -105 17 -83 22 -109 29 -147 2 -13 7 -34 10 -48 3 -14 8
-36 10 -50 2 -14 11 -59 20 -100 8 -41 17 -86 20 -100 3 -14 12 -61 21 -104
19 -96 22 -116 30 -184 12 -100 64 -186 171 -285 35 -32 84 -86 109 -120 25
-34 48 -66 53 -72 4 -5 14 -23 22 -40 8 -16 18 -32 21 -35 4 -3 25 -34 48 -69
44 -68 50 -105 31 -186 -5 -22 -11 -53 -14 -70 -13 -70 -18 -83 -47 -104 -39
-29 -95 -115 -113 -173 -8 -26 -14 -76 -13 -110 1 -57 -14 -100 -43 -128 -8
-8 -28 -52 -36 -80 -10 -34 -6 -98 9 -140 12 -36 60 -105 87 -127 29 -23 330
-117 510 -158 35 -8 157 -36 175 -40 53 -12 195 -36 239 -41 28 -3 53 -7 56
-9 6 -4 158 -21 270 -31 218 -19 513 -23 730 -9 74 4 154 9 177 9 24 1 43 5
43 9 0 5 4 6 9 3 5 -4 74 3 153 15 78 12 154 23 168 24 28 4 97 17 158 30 12
3 32 7 45 10 12 2 33 7 47 10 94 20 98 21 150 35 25 7 52 14 60 15 8 2 15 4
15 5 0 1 7 3 15 5 8 2 24 6 35 9 25 6 185 54 205 62 8 3 16 5 17 5 2 -1 22 7
45 16 51 20 99 67 129 125 26 51 33 149 13 187 -8 14 -14 30 -14 35 0 5 -12
25 -27 45 -22 28 -28 47 -29 96 -4 125 -34 200 -113 281 -47 49 -50 55 -65
140 -29 166 -29 171 43 268 23 30 41 58 41 61 0 22 106 157 192 245 123 126
159 188 172 300 9 73 18 135 22 141 2 4 6 24 9 45 3 22 8 50 11 64 7 30 23
106 29 140 3 14 7 36 10 50 3 14 8 36 11 50 2 14 7 36 9 50 12 60 16 77 21
105 3 17 9 48 14 70 5 22 11 54 14 70 7 37 14 72 21 105 3 14 8 36 11 50 3 14
7 39 9 55 3 17 8 41 11 55 7 30 23 106 29 140 3 14 7 36 10 50 3 14 11 59 20
100 16 83 20 102 35 175 6 28 13 64 16 80 10 62 10 62 89 68 89 6 167 41 234
102 165 151 167 414 4 567 -86 80 -156 106 -275 103 -92 -2 -111 -6 -160 -31
-228 -118 -292 -384 -143 -589 22 -30 50 -60 62 -66 13 -7 23 -18 23 -26 0 -7
-51 -91 -113 -185 -62 -95 -153 -235 -203 -311 -49 -75 -134 -206 -189 -290
-55 -84 -129 -198 -165 -252 -196 -303 -188 -294 -189 -215 0 49 -14 692 -26
1205 -3 146 -6 359 -6 390 1 15 8 21 26 23 38 3 131 38 167 63 74 51 146 151
164 229 14 62 10 166 -10 225 -37 114 -166 231 -276 251 -64 12 -144 11 -190
-1 -216 -57 -344 -287 -275 -495 34 -104 111 -195 193 -229 26 -11 31 -18 26
-35 -12 -44 -88 -241 -96 -250 -4 -6 -8 -16 -8 -23 0 -12 -76 -214 -102 -273
-13 -28 -12 -25 -23 -65 -4 -16 -11 -34 -15 -40 -4 -5 -17 -39 -30 -75 -13
-36 -28 -71 -33 -77 -5 -7 -7 -13 -4 -13 4 0 -3 -21 -14 -47 -12 -27 -47 -118
-79 -203 -32 -85 -68 -176 -79 -203 -11 -26 -20 -48 -20 -50 1 -1 -5 -18 -13
-37 -8 -19 -21 -53 -28 -75 -7 -22 -16 -44 -20 -50 -5 -5 -8 -12 -7 -15 4 -11
-35 -100 -44 -100 -5 0 -8 3 -7 8 1 6 -3 38 -18 115 -2 10 -5 26 -8 35 -3 9
-8 33 -12 52 -3 19 -7 40 -8 45 -2 6 -6 28 -11 50 -11 57 -10 54 -45 220 -18
83 -33 159 -35 170 -2 11 -10 52 -18 90 -19 87 -57 273 -62 300 -3 11 -11 52
-19 90 -51 243 -66 313 -70 335 -2 14 -12 58 -20 97 -30 140 -32 129 20 143
52 15 114 56 162 109 60 64 92 145 98 241 8 160 -78 301 -226 372 -54 26 -79
32 -145 34 -45 1 -98 -3 -120 -11z"/>
</g>
</svg>
